<mxfile host="app.diagrams.net" modified="2024-05-20T17:51:39.853Z" agent="Mozilla/5.0 (Windows NT 10.0; Win64; x64) AppleWebKit/537.36 (KHTML, like Gecko) Chrome/125.0.0.0 Safari/537.36" etag="jlPR7wqV10yprDyPogDA" version="24.4.4" type="device">
  <diagram id="C5RBs43oDa-KdzZeNtuy" name="Page-1">
    <mxGraphModel dx="655" dy="1870" grid="1" gridSize="10" guides="1" tooltips="1" connect="1" arrows="1" fold="1" page="1" pageScale="1" pageWidth="827" pageHeight="1169" math="0" shadow="0">
      <root>
        <mxCell id="WIyWlLk6GJQsqaUBKTNV-0" />
        <mxCell id="WIyWlLk6GJQsqaUBKTNV-1" parent="WIyWlLk6GJQsqaUBKTNV-0" />
        <mxCell id="zkfFHV4jXpPFQw0GAbJ--0" value="Beitrag" style="swimlane;fontStyle=0;align=center;verticalAlign=top;childLayout=stackLayout;horizontal=1;startSize=26;horizontalStack=0;resizeParent=1;resizeLast=0;collapsible=1;marginBottom=0;rounded=0;shadow=0;strokeWidth=1;fillColor=#e1d5e7;strokeColor=#9673a6;" parent="WIyWlLk6GJQsqaUBKTNV-1" vertex="1">
          <mxGeometry x="320" y="70" width="160" height="160" as="geometry">
            <mxRectangle x="230" y="140" width="160" height="26" as="alternateBounds" />
          </mxGeometry>
        </mxCell>
        <mxCell id="tdyQbTesufv4xPCYSzyx-6" value="Identifier" style="text;align=left;verticalAlign=top;spacingLeft=4;spacingRight=4;overflow=hidden;rotatable=0;points=[[0,0.5],[1,0.5]];portConstraint=eastwest;rounded=0;shadow=0;html=0;" parent="zkfFHV4jXpPFQw0GAbJ--0" vertex="1">
          <mxGeometry y="26" width="160" height="26" as="geometry" />
        </mxCell>
        <mxCell id="zkfFHV4jXpPFQw0GAbJ--2" value="Text" style="text;align=left;verticalAlign=top;spacingLeft=4;spacingRight=4;overflow=hidden;rotatable=0;points=[[0,0.5],[1,0.5]];portConstraint=eastwest;rounded=0;shadow=0;html=0;" parent="zkfFHV4jXpPFQw0GAbJ--0" vertex="1">
          <mxGeometry y="52" width="160" height="26" as="geometry" />
        </mxCell>
        <mxCell id="xivR8xFjDP2OUeOoNxAv-6" value="Medien" style="text;align=left;verticalAlign=top;spacingLeft=4;spacingRight=4;overflow=hidden;rotatable=0;points=[[0,0.5],[1,0.5]];portConstraint=eastwest;rounded=0;shadow=0;html=0;" parent="zkfFHV4jXpPFQw0GAbJ--0" vertex="1">
          <mxGeometry y="78" width="160" height="26" as="geometry" />
        </mxCell>
        <mxCell id="xivR8xFjDP2OUeOoNxAv-8" value="Standort" style="text;align=left;verticalAlign=top;spacingLeft=4;spacingRight=4;overflow=hidden;rotatable=0;points=[[0,0.5],[1,0.5]];portConstraint=eastwest;rounded=0;shadow=0;html=0;" parent="zkfFHV4jXpPFQw0GAbJ--0" vertex="1">
          <mxGeometry y="104" width="160" height="26" as="geometry" />
        </mxCell>
        <mxCell id="xivR8xFjDP2OUeOoNxAv-39" value="" style="endArrow=classic;html=1;rounded=0;exitX=1.018;exitY=0.152;exitDx=0;exitDy=0;exitPerimeter=0;entryX=1.002;entryY=0.654;entryDx=0;entryDy=0;entryPerimeter=0;" parent="zkfFHV4jXpPFQw0GAbJ--0" source="zkfFHV4jXpPFQw0GAbJ--0" target="xivR8xFjDP2OUeOoNxAv-6" edge="1">
          <mxGeometry relative="1" as="geometry">
            <mxPoint x="174" y="20" as="sourcePoint" />
            <mxPoint x="240" y="70" as="targetPoint" />
            <Array as="points">
              <mxPoint x="240" y="24" />
              <mxPoint x="240" y="95" />
            </Array>
          </mxGeometry>
        </mxCell>
        <mxCell id="xivR8xFjDP2OUeOoNxAv-40" value="gehÃ¶rt zu" style="edgeLabel;resizable=0;html=1;align=center;verticalAlign=middle;" parent="xivR8xFjDP2OUeOoNxAv-39" connectable="0" vertex="1">
          <mxGeometry relative="1" as="geometry" />
        </mxCell>
        <mxCell id="KU6OePEWpPYiwk-hXVTw-7" value="*" style="edgeLabel;html=1;align=center;verticalAlign=middle;resizable=0;points=[];" parent="xivR8xFjDP2OUeOoNxAv-39" vertex="1" connectable="0">
          <mxGeometry x="0.8658" y="-1" relative="1" as="geometry">
            <mxPoint as="offset" />
          </mxGeometry>
        </mxCell>
        <mxCell id="KU6OePEWpPYiwk-hXVTw-8" value="1" style="edgeLabel;html=1;align=center;verticalAlign=middle;resizable=0;points=[];" parent="xivR8xFjDP2OUeOoNxAv-39" vertex="1" connectable="0">
          <mxGeometry x="-0.941" relative="1" as="geometry">
            <mxPoint as="offset" />
          </mxGeometry>
        </mxCell>
        <mxCell id="ZhWCZaqq9nW5vbhEN_XT-1" value="Link" style="text;align=left;verticalAlign=top;spacingLeft=4;spacingRight=4;overflow=hidden;rotatable=0;points=[[0,0.5],[1,0.5]];portConstraint=eastwest;rounded=0;shadow=0;html=0;" parent="zkfFHV4jXpPFQw0GAbJ--0" vertex="1">
          <mxGeometry y="130" width="160" height="26" as="geometry" />
        </mxCell>
        <mxCell id="xivR8xFjDP2OUeOoNxAv-9" value="Anonymer Benutzer" style="swimlane;fontStyle=0;align=center;verticalAlign=top;childLayout=stackLayout;horizontal=1;startSize=26;horizontalStack=0;resizeParent=1;resizeLast=0;collapsible=1;marginBottom=0;rounded=0;shadow=0;strokeWidth=1;fillColor=#f8cecc;strokeColor=#b85450;" parent="WIyWlLk6GJQsqaUBKTNV-1" vertex="1">
          <mxGeometry x="320" y="-80" width="160" height="80" as="geometry">
            <mxRectangle x="240" y="260" width="160" height="26" as="alternateBounds" />
          </mxGeometry>
        </mxCell>
        <mxCell id="xivR8xFjDP2OUeOoNxAv-10" value="Benutzername" style="text;align=left;verticalAlign=top;spacingLeft=4;spacingRight=4;overflow=hidden;rotatable=0;points=[[0,0.5],[1,0.5]];portConstraint=eastwest;" parent="xivR8xFjDP2OUeOoNxAv-9" vertex="1">
          <mxGeometry y="26" width="160" height="26" as="geometry" />
        </mxCell>
        <mxCell id="xivR8xFjDP2OUeOoNxAv-11" value="Link" style="text;align=left;verticalAlign=top;spacingLeft=4;spacingRight=4;overflow=hidden;rotatable=0;points=[[0,0.5],[1,0.5]];portConstraint=eastwest;rounded=0;shadow=0;html=0;" parent="xivR8xFjDP2OUeOoNxAv-9" vertex="1">
          <mxGeometry y="52" width="160" height="26" as="geometry" />
        </mxCell>
        <mxCell id="xivR8xFjDP2OUeOoNxAv-13" value="Verifizierter Benutzer" style="swimlane;fontStyle=0;align=center;verticalAlign=top;childLayout=stackLayout;horizontal=1;startSize=26;horizontalStack=0;resizeParent=1;resizeLast=0;collapsible=1;marginBottom=0;rounded=0;shadow=0;strokeWidth=1;fillColor=#d5e8d4;strokeColor=#82b366;" parent="WIyWlLk6GJQsqaUBKTNV-1" vertex="1">
          <mxGeometry y="96" width="160" height="134" as="geometry">
            <mxRectangle x="240" y="260" width="160" height="26" as="alternateBounds" />
          </mxGeometry>
        </mxCell>
        <mxCell id="xivR8xFjDP2OUeOoNxAv-14" value="Benutzername" style="text;align=left;verticalAlign=top;spacingLeft=4;spacingRight=4;overflow=hidden;rotatable=0;points=[[0,0.5],[1,0.5]];portConstraint=eastwest;" parent="xivR8xFjDP2OUeOoNxAv-13" vertex="1">
          <mxGeometry y="26" width="160" height="26" as="geometry" />
        </mxCell>
        <mxCell id="xivR8xFjDP2OUeOoNxAv-15" value="Zugangs-Token" style="text;align=left;verticalAlign=top;spacingLeft=4;spacingRight=4;overflow=hidden;rotatable=0;points=[[0,0.5],[1,0.5]];portConstraint=eastwest;rounded=0;shadow=0;html=0;" parent="xivR8xFjDP2OUeOoNxAv-13" vertex="1">
          <mxGeometry y="52" width="160" height="26" as="geometry" />
        </mxCell>
        <mxCell id="ZhWCZaqq9nW5vbhEN_XT-0" value="Profilbild-Link" style="text;align=left;verticalAlign=top;spacingLeft=4;spacingRight=4;overflow=hidden;rotatable=0;points=[[0,0.5],[1,0.5]];portConstraint=eastwest;rounded=0;shadow=0;html=0;" parent="xivR8xFjDP2OUeOoNxAv-13" vertex="1">
          <mxGeometry y="78" width="160" height="26" as="geometry" />
        </mxCell>
        <mxCell id="agyUkzwa-3w7YlXkeHwC-7" value="Standort" style="text;align=left;verticalAlign=top;spacingLeft=4;spacingRight=4;overflow=hidden;rotatable=0;points=[[0,0.5],[1,0.5]];portConstraint=eastwest;rounded=0;shadow=0;html=0;" parent="xivR8xFjDP2OUeOoNxAv-13" vertex="1">
          <mxGeometry y="104" width="160" height="26" as="geometry" />
        </mxCell>
        <mxCell id="xivR8xFjDP2OUeOoNxAv-26" value="Chatroom" style="swimlane;fontStyle=0;align=center;verticalAlign=top;childLayout=stackLayout;horizontal=1;startSize=26;horizontalStack=0;resizeParent=1;resizeLast=0;collapsible=1;marginBottom=0;rounded=0;shadow=0;strokeWidth=1;fillColor=#dae8fc;strokeColor=#6c8ebf;" parent="WIyWlLk6GJQsqaUBKTNV-1" vertex="1">
          <mxGeometry y="-80" width="160" height="104" as="geometry">
            <mxRectangle x="230" y="140" width="160" height="26" as="alternateBounds" />
          </mxGeometry>
        </mxCell>
        <mxCell id="xivR8xFjDP2OUeOoNxAv-27" value="Name" style="text;align=left;verticalAlign=top;spacingLeft=4;spacingRight=4;overflow=hidden;rotatable=0;points=[[0,0.5],[1,0.5]];portConstraint=eastwest;rounded=0;shadow=0;html=0;" parent="xivR8xFjDP2OUeOoNxAv-26" vertex="1">
          <mxGeometry y="26" width="160" height="26" as="geometry" />
        </mxCell>
        <mxCell id="xivR8xFjDP2OUeOoNxAv-55" value="Folgende" style="text;align=left;verticalAlign=top;spacingLeft=4;spacingRight=4;overflow=hidden;rotatable=0;points=[[0,0.5],[1,0.5]];portConstraint=eastwest;rounded=0;shadow=0;html=0;" parent="xivR8xFjDP2OUeOoNxAv-26" vertex="1">
          <mxGeometry y="52" width="160" height="26" as="geometry" />
        </mxCell>
        <mxCell id="xivR8xFjDP2OUeOoNxAv-31" value="Link" style="text;align=left;verticalAlign=top;spacingLeft=4;spacingRight=4;overflow=hidden;rotatable=0;points=[[0,0.5],[1,0.5]];portConstraint=eastwest;rounded=0;shadow=0;html=0;" parent="xivR8xFjDP2OUeOoNxAv-26" vertex="1">
          <mxGeometry y="78" width="160" height="26" as="geometry" />
        </mxCell>
        <mxCell id="xivR8xFjDP2OUeOoNxAv-59" value="" style="endArrow=classic;html=1;rounded=0;entryX=0.873;entryY=-0.008;entryDx=0;entryDy=0;entryPerimeter=0;" parent="WIyWlLk6GJQsqaUBKTNV-1" edge="1">
          <mxGeometry relative="1" as="geometry">
            <mxPoint x="470.32" as="sourcePoint" />
            <mxPoint x="469.99999999999983" y="68.95999999999981" as="targetPoint" />
          </mxGeometry>
        </mxCell>
        <mxCell id="xivR8xFjDP2OUeOoNxAv-60" value="erstellt den" style="edgeLabel;resizable=0;html=1;align=center;verticalAlign=middle;" parent="xivR8xFjDP2OUeOoNxAv-59" connectable="0" vertex="1">
          <mxGeometry relative="1" as="geometry" />
        </mxCell>
        <mxCell id="KU6OePEWpPYiwk-hXVTw-11" value="1" style="edgeLabel;html=1;align=center;verticalAlign=middle;resizable=0;points=[];" parent="xivR8xFjDP2OUeOoNxAv-59" vertex="1" connectable="0">
          <mxGeometry x="-0.7275" y="1" relative="1" as="geometry">
            <mxPoint as="offset" />
          </mxGeometry>
        </mxCell>
        <mxCell id="KU6OePEWpPYiwk-hXVTw-14" value="*" style="edgeLabel;html=1;align=center;verticalAlign=middle;resizable=0;points=[];" parent="xivR8xFjDP2OUeOoNxAv-59" vertex="1" connectable="0">
          <mxGeometry x="0.4907" relative="1" as="geometry">
            <mxPoint as="offset" />
          </mxGeometry>
        </mxCell>
        <mxCell id="xivR8xFjDP2OUeOoNxAv-61" value="" style="endArrow=classic;html=1;rounded=0;entryX=0.5;entryY=0;entryDx=0;entryDy=0;exitX=0.5;exitY=1;exitDx=0;exitDy=0;" parent="WIyWlLk6GJQsqaUBKTNV-1" edge="1">
          <mxGeometry relative="1" as="geometry">
            <mxPoint x="410" as="sourcePoint" />
            <mxPoint x="410" y="70" as="targetPoint" />
          </mxGeometry>
        </mxCell>
        <mxCell id="xivR8xFjDP2OUeOoNxAv-62" value="mag den" style="edgeLabel;resizable=0;html=1;align=center;verticalAlign=middle;" parent="xivR8xFjDP2OUeOoNxAv-61" connectable="0" vertex="1">
          <mxGeometry relative="1" as="geometry" />
        </mxCell>
        <mxCell id="KU6OePEWpPYiwk-hXVTw-10" value="1" style="edgeLabel;html=1;align=center;verticalAlign=middle;resizable=0;points=[];" parent="xivR8xFjDP2OUeOoNxAv-61" vertex="1" connectable="0">
          <mxGeometry x="-0.7086" relative="1" as="geometry">
            <mxPoint as="offset" />
          </mxGeometry>
        </mxCell>
        <mxCell id="KU6OePEWpPYiwk-hXVTw-13" value="*" style="edgeLabel;html=1;align=center;verticalAlign=middle;resizable=0;points=[];" parent="xivR8xFjDP2OUeOoNxAv-61" vertex="1" connectable="0">
          <mxGeometry x="0.4914" relative="1" as="geometry">
            <mxPoint as="offset" />
          </mxGeometry>
        </mxCell>
        <mxCell id="xivR8xFjDP2OUeOoNxAv-64" value="" style="endArrow=classic;html=1;rounded=0;entryX=0.248;entryY=-0.017;entryDx=0;entryDy=0;exitX=0.25;exitY=1;exitDx=0;exitDy=0;entryPerimeter=0;" parent="WIyWlLk6GJQsqaUBKTNV-1" edge="1">
          <mxGeometry relative="1" as="geometry">
            <mxPoint x="340.32" as="sourcePoint" />
            <mxPoint x="339.99999999999983" y="67.79000000000019" as="targetPoint" />
          </mxGeometry>
        </mxCell>
        <mxCell id="xivR8xFjDP2OUeOoNxAv-65" value="mag nicht den" style="edgeLabel;resizable=0;html=1;align=center;verticalAlign=middle;" parent="xivR8xFjDP2OUeOoNxAv-64" connectable="0" vertex="1">
          <mxGeometry relative="1" as="geometry" />
        </mxCell>
        <mxCell id="KU6OePEWpPYiwk-hXVTw-9" value="1" style="edgeLabel;html=1;align=center;verticalAlign=middle;resizable=0;points=[];" parent="xivR8xFjDP2OUeOoNxAv-64" vertex="1" connectable="0">
          <mxGeometry x="-0.7463" y="1" relative="1" as="geometry">
            <mxPoint as="offset" />
          </mxGeometry>
        </mxCell>
        <mxCell id="KU6OePEWpPYiwk-hXVTw-12" value="*" style="edgeLabel;html=1;align=center;verticalAlign=middle;resizable=0;points=[];" parent="xivR8xFjDP2OUeOoNxAv-64" vertex="1" connectable="0">
          <mxGeometry x="0.4693" relative="1" as="geometry">
            <mxPoint as="offset" />
          </mxGeometry>
        </mxCell>
        <mxCell id="xivR8xFjDP2OUeOoNxAv-66" value="" style="endArrow=classic;html=1;rounded=0;exitX=-0.011;exitY=0.034;exitDx=0;exitDy=0;exitPerimeter=0;" parent="WIyWlLk6GJQsqaUBKTNV-1" source="zkfFHV4jXpPFQw0GAbJ--0" target="xivR8xFjDP2OUeOoNxAv-31" edge="1">
          <mxGeometry relative="1" as="geometry">
            <mxPoint x="280.32" y="50" as="sourcePoint" />
            <mxPoint x="162.87999999999988" y="50.597999999999956" as="targetPoint" />
          </mxGeometry>
        </mxCell>
        <mxCell id="xivR8xFjDP2OUeOoNxAv-67" value="gehÃ¶rt zum" style="edgeLabel;resizable=0;html=1;align=center;verticalAlign=middle;" parent="xivR8xFjDP2OUeOoNxAv-66" connectable="0" vertex="1">
          <mxGeometry relative="1" as="geometry" />
        </mxCell>
        <mxCell id="KU6OePEWpPYiwk-hXVTw-5" value="1" style="edgeLabel;html=1;align=center;verticalAlign=middle;resizable=0;points=[];" parent="xivR8xFjDP2OUeOoNxAv-66" vertex="1" connectable="0">
          <mxGeometry x="0.7439" y="-1" relative="1" as="geometry">
            <mxPoint as="offset" />
          </mxGeometry>
        </mxCell>
        <mxCell id="KU6OePEWpPYiwk-hXVTw-6" value="*" style="edgeLabel;html=1;align=center;verticalAlign=middle;resizable=0;points=[];" parent="xivR8xFjDP2OUeOoNxAv-66" vertex="1" connectable="0">
          <mxGeometry x="-0.7777" y="-2" relative="1" as="geometry">
            <mxPoint as="offset" />
          </mxGeometry>
        </mxCell>
        <mxCell id="tdyQbTesufv4xPCYSzyx-0" value="" style="endArrow=classic;html=1;rounded=0;entryX=-0.002;entryY=-0.002;entryDx=0;entryDy=0;entryPerimeter=0;exitX=1;exitY=0;exitDx=0;exitDy=0;" parent="WIyWlLk6GJQsqaUBKTNV-1" source="xivR8xFjDP2OUeOoNxAv-13" target="tdyQbTesufv4xPCYSzyx-6" edge="1">
          <mxGeometry relative="1" as="geometry">
            <mxPoint x="200.32" y="120" as="sourcePoint" />
            <mxPoint x="199.99999999999983" y="188.9599999999998" as="targetPoint" />
          </mxGeometry>
        </mxCell>
        <mxCell id="tdyQbTesufv4xPCYSzyx-1" value="erstellt den" style="edgeLabel;resizable=0;html=1;align=center;verticalAlign=middle;" parent="tdyQbTesufv4xPCYSzyx-0" connectable="0" vertex="1">
          <mxGeometry relative="1" as="geometry" />
        </mxCell>
        <mxCell id="KU6OePEWpPYiwk-hXVTw-15" value="1" style="edgeLabel;html=1;align=center;verticalAlign=middle;resizable=0;points=[];" parent="tdyQbTesufv4xPCYSzyx-0" vertex="1" connectable="0">
          <mxGeometry x="-0.8593" y="-1" relative="1" as="geometry">
            <mxPoint as="offset" />
          </mxGeometry>
        </mxCell>
        <mxCell id="KU6OePEWpPYiwk-hXVTw-18" value="*" style="edgeLabel;html=1;align=center;verticalAlign=middle;resizable=0;points=[];" parent="tdyQbTesufv4xPCYSzyx-0" vertex="1" connectable="0">
          <mxGeometry x="0.7286" y="-1" relative="1" as="geometry">
            <mxPoint as="offset" />
          </mxGeometry>
        </mxCell>
        <mxCell id="tdyQbTesufv4xPCYSzyx-2" value="" style="endArrow=classic;html=1;rounded=0;entryX=0;entryY=0.5;entryDx=0;entryDy=0;exitX=1;exitY=0.5;exitDx=0;exitDy=0;" parent="WIyWlLk6GJQsqaUBKTNV-1" source="xivR8xFjDP2OUeOoNxAv-14" target="zkfFHV4jXpPFQw0GAbJ--2" edge="1">
          <mxGeometry relative="1" as="geometry">
            <mxPoint x="200" y="150" as="sourcePoint" />
            <mxPoint x="320" y="187" as="targetPoint" />
          </mxGeometry>
        </mxCell>
        <mxCell id="tdyQbTesufv4xPCYSzyx-3" value="mag den" style="edgeLabel;resizable=0;html=1;align=center;verticalAlign=middle;" parent="tdyQbTesufv4xPCYSzyx-2" connectable="0" vertex="1">
          <mxGeometry relative="1" as="geometry" />
        </mxCell>
        <mxCell id="KU6OePEWpPYiwk-hXVTw-16" value="1" style="edgeLabel;html=1;align=center;verticalAlign=middle;resizable=0;points=[];" parent="tdyQbTesufv4xPCYSzyx-2" vertex="1" connectable="0">
          <mxGeometry x="-0.8553" y="2" relative="1" as="geometry">
            <mxPoint as="offset" />
          </mxGeometry>
        </mxCell>
        <mxCell id="KU6OePEWpPYiwk-hXVTw-19" value="*" style="edgeLabel;html=1;align=center;verticalAlign=middle;resizable=0;points=[];" parent="tdyQbTesufv4xPCYSzyx-2" vertex="1" connectable="0">
          <mxGeometry x="0.7249" y="1" relative="1" as="geometry">
            <mxPoint as="offset" />
          </mxGeometry>
        </mxCell>
        <mxCell id="tdyQbTesufv4xPCYSzyx-4" value="" style="endArrow=classic;html=1;rounded=0;entryX=0.004;entryY=0.112;entryDx=0;entryDy=0;exitX=1.001;exitY=1.115;exitDx=0;exitDy=0;entryPerimeter=0;exitPerimeter=0;" parent="WIyWlLk6GJQsqaUBKTNV-1" source="xivR8xFjDP2OUeOoNxAv-15" target="xivR8xFjDP2OUeOoNxAv-8" edge="1">
          <mxGeometry relative="1" as="geometry">
            <mxPoint x="210.32" y="200" as="sourcePoint" />
            <mxPoint x="209.99999999999983" y="267.7900000000002" as="targetPoint" />
          </mxGeometry>
        </mxCell>
        <mxCell id="tdyQbTesufv4xPCYSzyx-5" value="mag nicht den" style="edgeLabel;resizable=0;html=1;align=center;verticalAlign=middle;" parent="tdyQbTesufv4xPCYSzyx-4" connectable="0" vertex="1">
          <mxGeometry relative="1" as="geometry" />
        </mxCell>
        <mxCell id="KU6OePEWpPYiwk-hXVTw-17" value="1" style="edgeLabel;html=1;align=center;verticalAlign=middle;resizable=0;points=[];" parent="tdyQbTesufv4xPCYSzyx-4" vertex="1" connectable="0">
          <mxGeometry x="-0.8595" y="-1" relative="1" as="geometry">
            <mxPoint as="offset" />
          </mxGeometry>
        </mxCell>
        <mxCell id="KU6OePEWpPYiwk-hXVTw-20" value="*" style="edgeLabel;html=1;align=center;verticalAlign=middle;resizable=0;points=[];" parent="tdyQbTesufv4xPCYSzyx-4" vertex="1" connectable="0">
          <mxGeometry x="0.7291" y="-1" relative="1" as="geometry">
            <mxPoint as="offset" />
          </mxGeometry>
        </mxCell>
        <mxCell id="tdyQbTesufv4xPCYSzyx-7" value="" style="endArrow=classic;html=1;rounded=0;exitX=0.5;exitY=0;exitDx=0;exitDy=0;" parent="WIyWlLk6GJQsqaUBKTNV-1" source="xivR8xFjDP2OUeOoNxAv-13" target="xivR8xFjDP2OUeOoNxAv-31" edge="1">
          <mxGeometry relative="1" as="geometry">
            <mxPoint x="70" y="110" as="sourcePoint" />
            <mxPoint x="80.16000000000008" y="53.847999999999956" as="targetPoint" />
          </mxGeometry>
        </mxCell>
        <mxCell id="tdyQbTesufv4xPCYSzyx-8" value="folgt" style="edgeLabel;resizable=0;html=1;align=center;verticalAlign=middle;" parent="tdyQbTesufv4xPCYSzyx-7" connectable="0" vertex="1">
          <mxGeometry relative="1" as="geometry" />
        </mxCell>
        <mxCell id="KU6OePEWpPYiwk-hXVTw-2" value="*" style="edgeLabel;html=1;align=center;verticalAlign=middle;resizable=0;points=[];" parent="tdyQbTesufv4xPCYSzyx-7" vertex="1" connectable="0">
          <mxGeometry x="0.6799" y="-1" relative="1" as="geometry">
            <mxPoint x="-1" y="2" as="offset" />
          </mxGeometry>
        </mxCell>
        <mxCell id="KU6OePEWpPYiwk-hXVTw-3" value="1" style="edgeLabel;html=1;align=center;verticalAlign=middle;resizable=0;points=[];" parent="tdyQbTesufv4xPCYSzyx-7" vertex="1" connectable="0">
          <mxGeometry x="-0.8827" y="-2" relative="1" as="geometry">
            <mxPoint x="-2" y="-5" as="offset" />
          </mxGeometry>
        </mxCell>
        <mxCell id="tdyQbTesufv4xPCYSzyx-9" value="" style="endArrow=classic;html=1;rounded=0;entryX=1;entryY=0.5;entryDx=0;entryDy=0;exitX=0;exitY=0.5;exitDx=0;exitDy=0;" parent="WIyWlLk6GJQsqaUBKTNV-1" source="xivR8xFjDP2OUeOoNxAv-10" target="xivR8xFjDP2OUeOoNxAv-27" edge="1">
          <mxGeometry relative="1" as="geometry">
            <mxPoint x="240" y="-18" as="sourcePoint" />
            <mxPoint x="240" y="-110" as="targetPoint" />
          </mxGeometry>
        </mxCell>
        <mxCell id="tdyQbTesufv4xPCYSzyx-10" value="folgt" style="edgeLabel;resizable=0;html=1;align=center;verticalAlign=middle;" parent="tdyQbTesufv4xPCYSzyx-9" connectable="0" vertex="1">
          <mxGeometry relative="1" as="geometry" />
        </mxCell>
        <mxCell id="KU6OePEWpPYiwk-hXVTw-0" value="*" style="edgeLabel;html=1;align=center;verticalAlign=middle;resizable=0;points=[];" parent="tdyQbTesufv4xPCYSzyx-9" vertex="1" connectable="0">
          <mxGeometry x="0.79" y="2" relative="1" as="geometry">
            <mxPoint as="offset" />
          </mxGeometry>
        </mxCell>
        <mxCell id="KU6OePEWpPYiwk-hXVTw-1" value="1" style="edgeLabel;html=1;align=center;verticalAlign=middle;resizable=0;points=[];" parent="tdyQbTesufv4xPCYSzyx-9" vertex="1" connectable="0">
          <mxGeometry x="-0.895" relative="1" as="geometry">
            <mxPoint as="offset" />
          </mxGeometry>
        </mxCell>
        <mxCell id="agyUkzwa-3w7YlXkeHwC-0" value="Tags" style="swimlane;fontStyle=0;align=center;verticalAlign=top;childLayout=stackLayout;horizontal=1;startSize=26;horizontalStack=0;resizeParent=1;resizeLast=0;collapsible=1;marginBottom=0;rounded=0;shadow=0;strokeWidth=1;fillColor=#fff2cc;strokeColor=#d6b656;" parent="WIyWlLk6GJQsqaUBKTNV-1" vertex="1">
          <mxGeometry x="160" y="270" width="160" height="80" as="geometry">
            <mxRectangle x="240" y="260" width="160" height="26" as="alternateBounds" />
          </mxGeometry>
        </mxCell>
        <mxCell id="agyUkzwa-3w7YlXkeHwC-1" value="Tagname" style="text;align=left;verticalAlign=top;spacingLeft=4;spacingRight=4;overflow=hidden;rotatable=0;points=[[0,0.5],[1,0.5]];portConstraint=eastwest;" parent="agyUkzwa-3w7YlXkeHwC-0" vertex="1">
          <mxGeometry y="26" width="160" height="26" as="geometry" />
        </mxCell>
        <mxCell id="agyUkzwa-3w7YlXkeHwC-13" value="Beweisdokument" style="text;align=left;verticalAlign=top;spacingLeft=4;spacingRight=4;overflow=hidden;rotatable=0;points=[[0,0.5],[1,0.5]];portConstraint=eastwest;" parent="agyUkzwa-3w7YlXkeHwC-0" vertex="1">
          <mxGeometry y="52" width="160" height="26" as="geometry" />
        </mxCell>
        <mxCell id="agyUkzwa-3w7YlXkeHwC-4" value="" style="endArrow=classic;startArrow=classic;html=1;rounded=0;entryX=0.5;entryY=1;entryDx=0;entryDy=0;exitX=0;exitY=0.385;exitDx=0;exitDy=0;exitPerimeter=0;" parent="WIyWlLk6GJQsqaUBKTNV-1" source="agyUkzwa-3w7YlXkeHwC-0" target="xivR8xFjDP2OUeOoNxAv-13" edge="1">
          <mxGeometry width="50" height="50" relative="1" as="geometry">
            <mxPoint x="219.99608041770028" y="402" as="sourcePoint" />
            <mxPoint x="220.12000000000006" y="312.70199999999977" as="targetPoint" />
          </mxGeometry>
        </mxCell>
        <mxCell id="agyUkzwa-3w7YlXkeHwC-5" value="*" style="edgeLabel;html=1;align=center;verticalAlign=middle;resizable=0;points=[];" parent="agyUkzwa-3w7YlXkeHwC-4" vertex="1" connectable="0">
          <mxGeometry x="0.4696" relative="1" as="geometry">
            <mxPoint as="offset" />
          </mxGeometry>
        </mxCell>
        <mxCell id="agyUkzwa-3w7YlXkeHwC-6" value="*" style="edgeLabel;html=1;align=center;verticalAlign=middle;resizable=0;points=[];" parent="agyUkzwa-3w7YlXkeHwC-4" vertex="1" connectable="0">
          <mxGeometry x="-0.4459" relative="1" as="geometry">
            <mxPoint as="offset" />
          </mxGeometry>
        </mxCell>
        <mxCell id="agyUkzwa-3w7YlXkeHwC-11" value="hat" style="edgeLabel;html=1;align=center;verticalAlign=middle;resizable=0;points=[];" parent="agyUkzwa-3w7YlXkeHwC-4" vertex="1" connectable="0">
          <mxGeometry x="0.0281" relative="1" as="geometry">
            <mxPoint as="offset" />
          </mxGeometry>
        </mxCell>
        <mxCell id="agyUkzwa-3w7YlXkeHwC-8" value="" style="endArrow=classic;startArrow=classic;html=1;rounded=0;entryX=1.012;entryY=0.408;entryDx=0;entryDy=0;exitX=0.5;exitY=1;exitDx=0;exitDy=0;entryPerimeter=0;" parent="WIyWlLk6GJQsqaUBKTNV-1" source="zkfFHV4jXpPFQw0GAbJ--0" target="agyUkzwa-3w7YlXkeHwC-0" edge="1">
          <mxGeometry width="50" height="50" relative="1" as="geometry">
            <mxPoint x="510" y="340" as="sourcePoint" />
            <mxPoint x="350" y="290" as="targetPoint" />
          </mxGeometry>
        </mxCell>
        <mxCell id="agyUkzwa-3w7YlXkeHwC-9" value="*" style="edgeLabel;html=1;align=center;verticalAlign=middle;resizable=0;points=[];" parent="agyUkzwa-3w7YlXkeHwC-8" vertex="1" connectable="0">
          <mxGeometry x="0.4696" relative="1" as="geometry">
            <mxPoint as="offset" />
          </mxGeometry>
        </mxCell>
        <mxCell id="agyUkzwa-3w7YlXkeHwC-10" value="*" style="edgeLabel;html=1;align=center;verticalAlign=middle;resizable=0;points=[];" parent="agyUkzwa-3w7YlXkeHwC-8" vertex="1" connectable="0">
          <mxGeometry x="-0.4459" relative="1" as="geometry">
            <mxPoint as="offset" />
          </mxGeometry>
        </mxCell>
        <mxCell id="agyUkzwa-3w7YlXkeHwC-12" value="hat" style="edgeLabel;html=1;align=center;verticalAlign=middle;resizable=0;points=[];" parent="agyUkzwa-3w7YlXkeHwC-8" vertex="1" connectable="0">
          <mxGeometry x="0.0016" y="-1" relative="1" as="geometry">
            <mxPoint as="offset" />
          </mxGeometry>
        </mxCell>
      </root>
    </mxGraphModel>
  </diagram>
</mxfile>
